<?xml version="1.0" encoding="UTF-8" standalone="no"?><!DOCTYPE svg PUBLIC "-//W3C//DTD SVG 1.1//EN" "http://www.w3.org/Graphics/SVG/1.1/DTD/svg11.dtd"><svg width="100%" height="100%" viewBox="0 0 1741 366" version="1.1" xmlns="http://www.w3.org/2000/svg" xmlns:xlink="http://www.w3.org/1999/xlink" xml:space="preserve" xmlns:serif="http://www.serif.com/" style="fill-rule:evenodd;clip-rule:evenodd;stroke-linejoin:round;stroke-miterlimit:2;"><rect id="Artboard1" x="0" y="0" width="1740.5" height="365.23" style="fill:none;"/><g><path d="M253.024,124.589l-127.318,-0l-8.534,42.662l112.957,-0l-10.637,53.412l-113.005,-0l-9.282,46.4l132.975,-0l-11.249,55.638l-203.549,-0l50.75,-253.75l248.001,-0l36.292,165.168l103.718,-165.168l318.852,-0l84.079,138.985l27.758,-138.985l640.447,-0l39.991,100.845l81.113,-100.845l72.862,-0l-129.985,163.683l-17.926,90.067l-71.826,-0l18.275,-91.82l-42.316,-106.292l-122.421,-0l-11.073,55.536l111.82,0l-11.249,55.638l-111.664,0l-17.335,86.938l-71.826,-0l39.372,-196.86l-193.185,-0l-39.252,196.86l-71.826,-0l39.252,-196.86l-72.301,-0l-39.372,196.86l-59.076,-0l-84.082,-138.991l-27.755,138.991l-267.525,-0l45.461,-227.305l-142.684,227.305l-70.603,-0l-45.119,-198.112Zm449.768,-0l-126.498,-0l-8.535,42.662l112.958,-0l-10.638,53.412l-113.004,-0l-9.283,46.4l126.505,-0l28.495,-142.474Zm438.152,198.112l36.361,-181.804l71.826,-0l-36.361,181.804l-71.826,-0Z" style="fill:#4f46e5;"/><path d="M1283.38,68.951l-19.858,-0l-11.355,56.778l-71.826,-0l11.355,-56.778l-21.243,-0l70.183,-63.781l42.744,63.781Z" style="fill:#111827;"/></g></svg>